<svg id="SvgjsSvg1118" width="360" height="360" xmlns="http://www.w3.org/2000/svg" version="1.1" xmlns:xlink="http://www.w3.org/1999/xlink" xmlns:svgjs="http://svgjs.com/svgjs"><defs id="SvgjsDefs1119"></defs><g id="SvgjsG1120" transform="matrix(1,0,0,1,0,0)"><svg xmlns="http://www.w3.org/2000/svg" enable-background="new 0 0 250 250" viewBox="0 0 250 250" width="360" height="360"><path fill="#ffffff" d="M224.72,119.55v104.19H24.99V119.55c1.87-3.02,6.76-3.59,10.64-3.26c3.88,0.32,7.46,1.88,11.05,3.22
			c3.59,1.33,7.48,2.49,11.33,1.94c6.37-0.9,11.34-6.25,17.79-6.28c6.63-0.04,11.59,5.51,18.01,6.96
			c6.27,1.42,12.69-1.25,18.59-3.62c5.89-2.38,12.76-4.53,18.66-2.17c5.03,2.01,8.42,7.03,13.89,7.64
			c8.2,0.92,13.81-8.51,22.07-8.85c4.7-0.2,8.76,2.61,12.94,4.52c4.18,1.91,10.11,2.66,12.93-0.66c3.5-4.12,10.54-6.11,15.65-3.63
			c1.49,0.73,2.78,1.72,4.2,2.55C217.05,120.41,219.74,120.75,224.72,119.55z" class="svgShape color7fb2b5-0 selectable"></path><path fill="#ffffff" d="M142.59,198.96c0,1.19-1.65,2.25-4.18,2.88l-52.86,21.91H24.99v-40.17l98.24,15.79
			c-0.05-0.14-0.07-0.27-0.07-0.41c0-1.93,4.35-3.5,9.71-3.5C138.24,195.46,142.59,197.02,142.59,198.96z" opacity=".5" class="svgShape color3f6d74-1 selectable"></path><ellipse cx="160.65" cy="161.98" fill="#ffffff" rx="36.32" ry="2.81" class="svgShape coloradd4d0-2 selectable"></ellipse><ellipse cx="117.49" cy="179.94" fill="#ffffff" rx="51.68" ry="2.41" class="svgShape coloradd4d0-3 selectable"></ellipse><ellipse cx="156.19" cy="177.68" fill="#fffcfc" rx="37.92" ry="2.8" class="svgShape color77adad-4 selectable"></ellipse><ellipse cx="164.36" cy="149.87" fill="#ffffff" rx="16.09" ry=".99" class="svgShape coloradd4d0-5 selectable"></ellipse><ellipse cx="97.22" cy="168.38" fill="#ffffff" rx="9.43" ry=".99" class="svgShape coloradd4d0-6 selectable"></ellipse><ellipse cx="204.43" cy="139.82" fill="#ffffff" rx="18.6" ry="1.23" class="svgShape coloradd4d0-7 selectable"></ellipse><ellipse cx="189.5" cy="144.94" fill="#fafdfd" rx="3.67" ry="1.01" class="svgShape coloradd4d0-8 selectable"></ellipse><ellipse cx="213.09" cy="153.71" fill="#ffffff" rx="5.41" ry="1.18" class="svgShape coloradd4d0-9 selectable"></ellipse><ellipse cx="203.83" cy="131.41" fill="#ffffff" rx="6.63" ry="1.08" class="svgShape coloradd4d0-10 selectable"></ellipse><ellipse cx="155.91" cy="129.84" fill="#fdfffe" rx="26.38" ry=".49" class="svgShape coloradd4d0-11 selectable"></ellipse><ellipse cx="123.45" cy="123.86" fill="#ffffff" rx="16.87" ry=".72" class="svgShape coloradd4d0-12 selectable"></ellipse><rect width="15.45" height="52.89" x="43.79" y="170.7" fill="#9b5c35" class="svgShape color9b5c35-13 selectable"></rect><polygon fill="#723d1f" points="65.2 158.49 65.2 172.34 24.99 170.71 25.07 155.8 59.45 160.07" class="svgShape color723d1f-14 selectable"></polygon><polygon fill="#955530" points="65.2 172.34 68.73 171.49 68.6 157.56 154.74 134.09 154.74 129.38 59.24 155.33 24.99 150.51 24.99 155.8 59.45 160.07 65.2 158.49" class="svgShape color955530-15 selectable"></polygon><polygon fill="#582f17" points="68.68 166 148.27 143.53 148.27 135.84 68.6 157.56" class="svgShape color582f17-16 selectable"></polygon><polygon fill="#daa374" points="154.74 129.38 59.24 155.33 24.99 150.51 24.99 121.92 76.74 122.37" class="svgShape colordaa374-17 selectable"></polygon><polygon fill="#462714" points="25.05 158.75 59.62 163.21 65.2 163.92 65.2 158.49 59.45 160.07 24.99 155.8" class="svgShape color462714-18 selectable"></polygon><path fill="#703a1d" d="M54.05,223.59H43.79V170.7h12.15l2.59,1.37c0,0-7.85,10.05-8.02,26.76
					C50.43,207.91,52.31,217.1,54.05,223.59z" class="svgShape color703a1d-19 selectable"></path><g><polygon fill="#814727" points="59.45 155.33 59.45 160.07 24.99 155.8 24.99 150.51" class="svgShape color814727-21 selectable"></polygon></g><g><path fill="#aa492f" d="M145.85,181.33l-11.66,2.16l-3.24,0.6l-0.71-5.08l0.89-0.18l-3.02-28.91l0.16,30.83l0,0.51l0.85-0.08
				l0.42,5.2l-15.28,2.05l-0.27-4.9l0.73-0.1l-1.55-32.46c0,0-0.06-3.37-2.75-4.19c-2.7-0.81-24.1-5.46-27.61-6.62
				c-3.51-1.16-9.34-4.32-10.74-11.99c-1.4-7.67-0.49-13.55-0.49-13.55l5.61,0.33l22.52,1.34l0.86,3.62c0,0,15.5,4,21.17,5.67
				c5.67,1.67,17.22,4.86,18.95,10.04c1.64,4.91,3.51,37.04,3.71,40.47c0.01,0.19,0.02,0.3,0.02,0.3l0.86-0.03L145.85,181.33z" class="svgShape coloraa492f-23 selectable"></path><path fill="#833221" d="M144.42,176.4l-10.83,2.05l0.6,5.04l-3.24,0.6l-0.71-5.08l0.89-0.18l-3.02-28.91c0,0,0.53-7.15-1.21-10.96
				c-1.74-3.81-11.54-6.88-11.54-6.88l-18.14-6.48c12.11,2.15,27.17,9.52,30.53,12.03c3.36,2.51,4.41,9.11,4.9,14.62
				c0.49,5.51,1.63,25.23,1.63,25.23l10.12-1.36l0.02,0V176.4z" class="svgShape color833221-24 selectable"></path><path fill="#833221" d="M128.28,181.26l-13.55,2.19l-1.55-32.46c0,0-0.06-3.37-2.75-4.19c-2.7-0.81-24.1-5.46-27.61-6.62
				c-3.51-1.16-9.34-4.32-10.74-11.99c-1.4-7.67-0.49-13.55-0.49-13.55l5.61,0.33c0.25,0.92,0.34,2.02,0.17,3.34
				c-0.92,7.13,2.7,11.01,6.64,15.82c3.94,4.81,21.06,7.51,26.78,9.99c5.72,2.48,5.62,6.7,6.43,13.93s0.74,24.22,0.74,24.22
				l10.32-1.52L128.28,181.26z" class="svgShape color833221-25 selectable"></path><path fill="#f9b090" d="M138.09,206.09c-0.67,0.65-1.01,0.39-1.01,0.39s-0.07,0.45-0.57,0.65c-0.5,0.19-0.94-0.23-0.94-0.21
					c0,0.01-0.1,0.45-0.8,0.57c-0.61,0.1-0.65-0.2-0.65-0.29c-0.01,0.07-0.06,0.29-0.54,0.42c-0.58,0.15-0.62-0.27-0.62-0.27
					c-0.14,0.54-0.45,0.38-3.07-0.2c-2.62-0.57-4.79-2.46-6.92-3.1c-2.13-0.65-5.72-0.36-6.29-2.06c-0.57-1.7,0.88-4.69,1.03-6.08
					c0.07-0.71,0.01-2.73-0.06-4.55c-0.07-1.76-0.16-3.33-0.16-3.33l7.23-0.97l0.08,2.88l0.18,6.91c0,0,5.18,3.04,6.86,4.75
					c1.67,1.71,5.46,2.67,5.92,2.82C138.22,204.53,138.77,205.44,138.09,206.09z" class="svgShape colorf9b090-26 selectable"></path><path fill="#e07b5e" d="M132.96 207.34c-.19-.65-.93-.8-1.51-1.05C132.06 206.28 132.99 206.55 132.96 207.34 132.96 207.34 132.99 206.55 132.96 207.34zM134.12 207.17c-.24-.62-.83-.97-1.37-1.35C133.39 205.96 134.11 206.43 134.12 207.17 134.12 207.17 134.11 206.43 134.12 207.17zM135.58 206.91c-.31-.62-.98-.91-1.57-1.28C134.68 205.76 135.47 206.15 135.58 206.91 135.58 206.91 135.47 206.15 135.58 206.91zM137.09 206.48c-.34-.59-.99-.86-1.58-1.19C136.17 205.38 136.94 205.74 137.09 206.48 137.09 206.48 136.94 205.74 137.09 206.48z" class="svgShape colore07b5e-27 selectable"></path><path fill="#e87863" d="M124.79,189.91l-7.15,1.43c-0.07-1.76-0.16-3.33-0.16-3.33l7.23-0.97L124.79,189.91z" class="svgShape colore87863-28 selectable"></path><path fill="#f9b090" d="M153.1,201.8c-1.48,0.72-3.29-0.19-3.29-0.19s-0.91,0.47-3.22,0.24s-4.95-2.06-6.02-2.67
				c-1.07-0.62-5.68,0.24-7.06-0.8c-1.38-1.04-0.51-3.91-0.55-4.44c-0.04-0.54,0.46-4.13,0.38-4.42c-0.03-0.13-0.13-1.36-0.23-2.64
				c-0.12-1.53-0.23-3.14-0.23-3.14l7.46-1.38c0,0-0.02,1.42-0.04,3.13c-0.04,2.56-0.09,5.78-0.11,5.9
				c-0.04,0.2,1.12,1.52,1.89,1.95s7.42,4.91,8.51,5.43c1.09,0.52,2.65,0.7,2.96,0.81C153.86,199.67,154.58,201.08,153.1,201.8z" class="svgShape colorf9b090-29 selectable"></path><path fill="#e87863" d="M140.35,182.35c0,0-0.02,1.42-0.04,3.13l-7.19,1.39c-0.12-1.53-0.23-3.14-0.23-3.14L140.35,182.35z" class="svgShape colore87863-30 selectable"></path><path fill="#fdeecf" d="M71.59,114.63l3.44-20.5c0,0-2.84-18.37-1.7-20.43c1.13-2.07,6.09-6.16,7.97-6.82l-0.69-0.7l3.79-2.56
				l7.64,7.09l0.78-3.83c0,0,1.24,2.34,1.42,3.16c0,0,2.75,4.58,3.56,9.54c0.81,4.97,1.62,18.33,1.62,18.33l0.51,12.2l-0.22,6.21
				L71.59,114.63z" class="svgShape colorfdeecf-31 selectable"></path><polygon fill="#703529" points="82.22 80.53 84.52 110.71 76.73 110.71 77.12 87.22" opacity=".4" class="svgShape color703529-32 selectable"></polygon><path fill="#fdeecf" d="M81.68,94.82c-0.06,1-0.11,1.63-0.11,1.63H69.18c-0.02-0.54-0.02-1.09-0.03-1.63
				c-0.02-7.58,1.34-14.98,2.19-17.61c1.05-3.26,3.4-6.16,7.07-3.84c3.67,2.32,3.81,5.72,3.86,8.83
				C82.32,84.57,81.89,91.61,81.68,94.82z" class="svgShape colorfdeecf-33 selectable"></path><polygon fill="#fdeecf" points="69.18 96.46 68.6 96.46 68.89 100.21 82.28 99.79 82.28 96.46 81.58 96.46" class="svgShape colorfdeecf-34 selectable"></polygon><path fill="#703529" d="M81.68,94.82c-0.06,1-0.11,1.63-0.11,1.63H69.18c-0.02-0.54-0.02-1.09-0.03-1.63H81.68z" opacity=".4" class="svgShape color703529-35 selectable"></path><path fill="#fab795" d="M122.22,101.39l-8.54,8.99l-7.75,0.26l-2.06,0.07l-3.95-1.09l-0.16-3.92c0,0,2.14,0.04,4.78,0.07
					c4.14,0.04,9.52,0.05,9.77-0.19c0.41-0.4,2.64-2.64,3.5-2.96c0.87-0.32,1.98-0.65,2.05-0.76c0.07-0.11,1.23-1.56,1.72-1.51
					C122.05,100.39,122.38,101.03,122.22,101.39z" class="svgShape colorfab795-36 selectable"></path><path fill="#e87863" d="M105.92,110.64l-2.06,0.07l-3.95-1.09l-0.16-3.92c0,0,2.14,0.04,4.78,0.07c0.12,1.32,0.44,3.75,1.27,4.37
					C106.03,110.3,106.06,110.47,105.92,110.64z" class="svgShape colore87863-37 selectable"></path><path fill="#aa492f" d="M92.04 70.69l-2.01 4.37c-1.15-.6-8.73-8.19-8.73-8.19l-.69-.7 3.79-2.57L92.04 70.69zM92.04 70.69l.78-3.83c0 0 1.13 2.08 1.42 3.16l-.2 3.19L92.04 70.69z" class="svgShape coloraa492f-38 selectable"></path><ellipse cx="92.71" cy="40.05" fill="#f0c25a" rx="16.88" ry="4.21" transform="rotate(-19.881 92.708 40.048)" class="svgShape colorf0c25a-39 selectable"></ellipse><path fill="#522d1a" d="M90.74,41.41c-0.35,1.42-1.29,3.42-1.29,3.42c0.03,0.64-0.84,3.88-0.84,3.88s-1.34-2.9-2.29-2.59
				c-0.83,0.27-1.52,1.12-1.59,3.02c-0.77-1.24-0.93-4.36-0.93-4.36s-0.28-1.65,1.55-3.04c1.84-1.39,6.04-3.11,6.04-3.11
				S91.1,39.99,90.74,41.41z" class="svgShape color522d1a-40 selectable"></path><path fill="#f9b090" d="M99.59,61.65c-2.46,2.62-5.83,1.21-5.83,1.21l-0.93,4l-0.78,3.83l-7.45-6.91l2.93-10.36
				c0,0-2.63-0.87-2.77-3.4c-0.14-2.53,0.63-3.6,1.58-3.91c0.95-0.3,2.29,2.59,2.29,2.59s0.87-3.24,0.84-3.88c0,0,0.93-2,1.29-3.42
				c0.35-1.42,0.66-2.78,0.66-2.78l1.05-0.43c0,0,4.04,2.78,9.47,3.17C101.93,42.81,101.94,59.14,99.59,61.65z" class="svgShape colorf9b090-41 selectable"></path><path fill="#522d1a" d="M103.66,40.83c-0.28,0.88-1.74,0.54-1.74,0.54c-5.43-0.39-9.47-3.17-9.47-3.17s4.01-1.55,7.37-1.43
				C103.19,36.89,103.94,39.96,103.66,40.83z" class="svgShape color522d1a-42 selectable"></path><path fill="#e87863" d="M101.76,41.35c-0.56,0.28-6.2-0.78-7.75-0.97c-1.55-0.19-3.4,1.52-3.4,1.52l0.8-3.27l1.05-0.43c0,0,0,0,0,0
				C92.57,38.27,96.49,40.93,101.76,41.35z" class="svgShape colore87863-43 selectable"></path><path fill="#f0c25a" d="M99.8,33.67c-5.81,1.22-11.23,3.2-16.3,5.84c0,0-0.05-0.41-0.1-1.02c-0.01-0.08-0.01-0.15-0.02-0.24
				c-0.13-1.7-0.19-4.58,0.76-5.01c0.79-0.36,2.73-1.17,4.7-1.93c1.42-0.55,2.85-1.08,3.87-1.4c2.43-0.76,3.59-1.09,4.14-0.57
				c0.36,0.34,1.49,2.05,2.25,3.22C99.5,33.2,99.8,33.67,99.8,33.67z" class="svgShape colorf0c25a-44 selectable"></path><path fill="#c6932b" d="M87.95,33.04c-1.15,0.84-1.85,0.94-1.85,0.94l0.82,2.78c0,0-2.03,1.03-3.53,1.73
				c-0.01-0.08-0.01-0.15-0.02-0.24c-0.13-1.7-0.19-4.58,0.76-5.01c0.79-0.36,2.73-1.17,4.7-1.93
				C88.86,31.68,88.79,32.43,87.95,33.04z" class="svgShape colorc6932b-45 selectable"></path><path fill="#d77b59" d="M98.49,57.88c-2.38,0-3.84-1.71-3.91-1.79c-0.1-0.12-0.08-0.29,0.03-0.38c0.11-0.1,0.28-0.08,0.38,0.03
				c0.07,0.09,1.86,2.12,4.55,1.48c0.13-0.05,0.29,0.06,0.33,0.2c0.03,0.15-0.06,0.29-0.2,0.33C99.25,57.84,98.86,57.88,98.49,57.88
				z" class="svgShape colord77b59-46 selectable"></path><path fill="#491d0c" d="M101.51,43.91c-1.66-0.24-2.11,0.96-2.11,0.96s-0.65-0.95-2.06-0.03c0,0-0.31-0.81-1.55-0.92
				c-1.23-0.11-1.96,0.66-1.96,0.66l-4.76,0.12L89,45.28c0,0,3.18-0.17,3.71-0.06c0.53,0.11,0.65,0.21,0.65,0.21
				s-0.43,2.18,0.75,3.24c1.18,1.06,2.47,0.41,2.82-0.19c0.34-0.57,0.74-1.83,0.67-2.87c-0.01-0.13,0.03-0.25,0.1-0.35
				c0.11-0.14,0.31-0.3,0.63-0.28c0.21,0.02,0.36,0.08,0.47,0.16c0.16,0.12,0.24,0.32,0.2,0.52c-0.11,0.58-0.28,2.28,1.13,3.17
				c1.72,1.08,2.87-1.41,2.96-2.32C103.2,45.61,103.17,44.16,101.51,43.91z M97.11,46.79c-0.17,1.41-0.92,2.1-1.79,1.98
				c-0.87-0.12-1.94-1.55-1.49-3.02c0.45-1.48,1.67-1.4,1.67-1.4C96.82,44.38,97.28,45.38,97.11,46.79z M102.59,46.9
				c-0.1,0.8-0.95,1.92-1.89,1.72c-0.95-0.2-1.67-1.81-1.06-3.24c0.32-0.76,0.88-1.01,1.33-1.07c0.51-0.07,1.03,0.11,1.34,0.52
				C102.77,45.45,102.67,46.29,102.59,46.9z" class="svgShape color491d0c-47 selectable"></path><ellipse cx="95.91" cy="46.95" fill="#491d0c" rx=".36" ry=".59" class="svgShape color491d0c-48 selectable"></ellipse><ellipse cx="101.25" cy="46.96" fill="#491d0c" rx=".26" ry=".53" class="svgShape color491d0c-49 selectable"></ellipse><g><path fill="#aa492f" d="M77.54,69.33c0,0,4.22,1.64,6.71,13.58c2.3,11.07,1.85,25.83,1.85,25.83l1.31,0.09
				c0,0,0.05-12.97-0.38-16.78c-0.43-3.81-2.2-19.64-8.32-23.6L77.54,69.33z" class="svgShape coloraa492f-51 selectable"></path></g><g><path fill="#aa492f" d="M94.36,70.23c0,0,0.47,4.66,0.68,5.47c0.2,0.81,1.04,7.83,1.04,7.83c0.71,9.47,0.98,18.17,0.72,25.97
				l1.03,0.07c0,0,0.26-13.47-0.55-20.98c-0.61-5.63-1.47-12.24-1.86-15.19c-0.15-1.11-0.49-2.19-1.06-3.17
				C94.36,70.24,94.36,70.23,94.36,70.23z" class="svgShape coloraa492f-53 selectable"></path></g><g><path fill="#d77b59" d="M97.99,54.16c-0.1,0-0.19-0.02-0.27-0.04c-0.4-0.14-0.53-0.56-0.54-0.6c-0.04-0.14,0.04-0.29,0.19-0.33
				c0.14-0.03,0.3,0.04,0.33,0.19l0,0c0,0,0.06,0.19,0.21,0.24c0.12,0.03,0.33-0.03,0.58-0.2c0.57-0.41,0.38-3,0.07-4.71
				c-0.03-0.15,0.07-0.29,0.22-0.31c0.14-0.03,0.29,0.07,0.31,0.22c0.14,0.74,0.76,4.49-0.29,5.24
				C98.5,54.06,98.23,54.16,97.99,54.16z" class="svgShape colord77b59-55 selectable"></path></g><g><path fill="#4d2e1d" d="M126.3,100.16c-0.18,0-0.37-0.07-0.51-0.21c-0.29-0.28-0.29-0.75-0.01-1.03
						c2.61-2.66,64.14-65.34,75.04-72.55c0.34-0.22,0.79-0.13,1.01,0.21c0.22,0.34,0.13,0.79-0.21,1.01
						c-10.77,7.12-74.17,71.7-74.81,72.35C126.67,100.09,126.49,100.16,126.3,100.16z" class="svgShape color4d2e1d-57 selectable"></path><path fill="#4d2e1d" d="M104.47,122.24c-0.36,0-0.73-0.14-1-0.42c-0.55-0.55-0.54-1.44,0.01-1.99L125,98.63
						c0.55-0.55,1.44-0.54,1.99,0.01c0.55,0.55,0.54,1.44-0.01,1.99l-21.52,21.21C105.18,122.11,104.83,122.24,104.47,122.24z" class="svgShape color4d2e1d-58 selectable"></path><path fill="#6d6e70" d="M125.28,110.5c-0.03,0-0.06-0.01-0.1-0.02c-0.14-0.06-0.21-0.21-0.16-0.35c1.62-4.19,1.33-8.82,1.32-8.87
					c-0.01-0.11,0.06-0.22,0.16-0.27c0.05-0.02,4.52-2.05,12.05-8.5s14.83-19.3,14.9-19.43c0.03-0.05,0.08-0.1,0.13-0.12
					c12.34-5.2,17.19-17.1,17.23-17.21c0.03-0.06,0.07-0.11,0.13-0.14c8.77-4.3,28.03-23.71,28.23-23.91
					c1.9-1.9,2.07-4.44,2.07-4.46c0.01-0.15,0.13-0.26,0.29-0.25c0.15,0.01,0.26,0.13,0.25,0.29c-0.01,0.11-0.17,2.76-2.23,4.81
					c-0.19,0.2-19.39,19.54-28.27,23.97c-0.5,1.16-5.51,12.33-17.4,17.38c-0.63,1.11-7.69,13.25-14.98,19.49
					c-6.77,5.81-11.12,8.07-12,8.51c0.04,0.92,0.11,5.09-1.36,8.91C125.49,110.44,125.39,110.5,125.28,110.5z" class="svgShape color6d6e70-59 selectable"></path><path fill="#6d6e70" d="M201.52,199.51c-0.15,0-0.27-0.12-0.27-0.27V27.73c0-0.15,0.12-0.27,0.27-0.27c0.15,0,0.27,0.12,0.27,0.27
					v171.51C201.79,199.39,201.66,199.51,201.52,199.51z" class="svgShape color6d6e70-60 selectable"></path><path fill="#ffffff" d="M206.41,207.76c-0.12,0-0.19,0-0.22,0c-0.15,0-0.27-0.13-0.26-0.27c0-0.15,0.12-0.26,0.27-0.26h0.01
					c0.07-0.01,8.78,0.15,12.96-4.32c1.12-1.2,1.57-2.35,1.33-3.43c-0.47-2.13-3.44-3.34-3.47-3.36c-0.14-0.06-0.21-0.21-0.15-0.35
					c0.06-0.14,0.22-0.21,0.35-0.15c0.13,0.05,3.26,1.33,3.8,3.74c0.28,1.26-0.21,2.58-1.46,3.92
					C215.55,207.55,207.85,207.76,206.41,207.76z" class="svgShape colorffffff-61 selectable"></path><path fill="#ffffff" d="M214.25,201c-0.05,0-0.1-0.01-0.14-0.04c-0.13-0.08-0.16-0.25-0.08-0.37c0-0.01,0.42-0.69,0.2-1.47
					c-0.17-0.6-0.68-1.12-1.51-1.53c-2.63-1.31-8.13-1.92-8.19-1.93c-0.15-0.02-0.25-0.15-0.24-0.3c0.02-0.14,0.13-0.24,0.27-0.24
					c0.01,0,0.02,0,0.03,0c0.23,0.03,5.65,0.63,8.37,1.98c0.97,0.49,1.58,1.12,1.79,1.88c0.28,1.01-0.24,1.86-0.27,1.9
					C214.43,200.96,214.34,201,214.25,201z" class="svgShape colorffffff-62 selectable"></path><path fill="#ffffff" d="M204.57 202.86L204.57 202.86c-.16 0-.27-.12-.27-.27 0-.15.12-.27.27-.27l0 0 0 0c.05 0 2.01-.01 4.13-1.18 1.95-1.07 1.59-2.02 1.59-2.03-.05-.14.01-.3.14-.35.14-.06.29 0 .35.13.02.06.6 1.39-1.82 2.72C206.75 202.83 204.75 202.86 204.57 202.86zM201.61 201.63c-.13 0-.24-.09-.26-.22-.03-.15.06-.29.21-.32 2.5-.48 5.18-1.42 5.18-2.09-.01-.84-2.72-1.62-4.68-1.86-.15-.02-.25-.16-.24-.3.02-.13.13-.24.27-.24.01 0 .02 0 .03 0 .21.03 5.13.66 5.16 2.4.02 1.42-4.29 2.37-5.61 2.63C201.64 201.63 201.63 201.63 201.61 201.63z" class="svgShape colorffffff-63 selectable"></path><path fill="#ffffff" d="M201.61 200.7c-.12 0-.23-.08-.26-.2-.04-.15.05-.29.2-.33.59-.15 1.62-.52 1.9-.87.03-.03.08-.12.07-.16-.06-.15-.51-.31-.88-.37-.15-.02-.25-.16-.23-.31.03-.14.18-.23.31-.23.19.03 1.1.18 1.31.7.06.16.08.4-.15.7-.48.62-2.03 1.02-2.2 1.06C201.65 200.7 201.63 200.7 201.61 200.7zM194.31 203.55c-1.3 0-3.27-.17-5.57-.95-2.69-.91-3.13-1.89-3.01-2.55.05-.33.3-.7.54-.7.15 0 .27.12.27.27 0 .1-.06.19-.14.24-.04.04-.18.21-.14.47.06.34.49 1.03 2.65 1.76 3.89 1.31 6.9.83 6.92.82.16-.02.29.07.31.22.03.15-.07.29-.22.31C195.87 203.45 195.28 203.55 194.31 203.55zM195.77 201.11c-2.94 0-5.62-1.05-5.77-1.11-.14-.06-.21-.21-.15-.35.05-.14.22-.21.35-.15.05.02 4.71 1.83 8.33.67.17-.06.3.03.34.17.04.14-.03.29-.17.34C197.75 201 196.75 201.11 195.77 201.11z" class="svgShape colorffffff-64 selectable"></path><path fill="#ffffff" d="M188.66 200.7c-.06 0-.11-.02-.16-.05-.71-.53-1-1.06-.87-1.58.39-1.49 4.4-2.05 4.86-2.11.02 0 .03 0 .04 0 .13 0 .25.1.27.24.02.15-.08.28-.23.3-1.59.21-4.18.85-4.41 1.71-.09.36.31.75.67 1.01.12.09.14.26.05.38C188.83 200.67 188.75 200.7 188.66 200.7zM180.64 201.52c-.05 0-.11-.01-.15-.04-.03-.02-.69-.48-.7-1.3-.01-.79.58-1.59 1.73-2.41 2.91-2.04 8.15-2.43 8.38-2.45.01 0 .02 0 .02 0 .14 0 .26.11.27.25.01.15-.1.28-.25.29-.05.01-5.32.4-8.11 2.35-.98.69-1.5 1.37-1.5 1.95.01.54.44.85.47.86.12.08.15.25.07.38C180.81 201.48 180.73 201.52 180.64 201.52zM185.98 206.45c-.02 0-.03 0-.05 0-9.5-1.65-11.09-6.04-11.15-6.22-.05-.14.03-.29.16-.34.14-.04.3.02.34.17.02.04 1.59 4.27 10.74 5.86.15.03.24.17.22.31C186.22 206.35 186.11 206.45 185.98 206.45zM176.25 198.13c-.09 0-.17-.04-.23-.12-.08-.12-.05-.29.08-.37.14-.1 3.38-2.21 6.01-2.21.14 0 .29.01.43.02.15.02.26.15.24.3-.02.15-.14.27-.3.24-.12-.01-.25-.02-.38-.02-2.46 0-5.67 2.1-5.71 2.12C176.36 198.12 176.3 198.13 176.25 198.13zM217.05 207.26c-.13 0-.24-.09-.26-.22-.03-.15.07-.29.22-.32 5.99-1.12 7.48-4.58 7.49-4.62.05-.13.22-.21.35-.15.14.06.21.21.15.35-.06.15-1.59 3.77-7.89 4.95C217.08 207.26 217.06 207.26 217.05 207.26zM156.57 209.38c-.12 0-.22-.07-.26-.19-.04-.14.03-.29.17-.34.04-.01 3.73-1.23 5.67-4.07.54-.79.72-1.56.56-2.3-.3-1.32-1.63-2.12-1.64-2.12-.13-.07-.17-.24-.1-.37.07-.13.24-.17.37-.1.06.03 1.55.92 1.9 2.47.2.89-.02 1.81-.65 2.73-2.04 2.99-5.78 4.22-5.94 4.27C156.62 209.38 156.6 209.38 156.57 209.38zM157.49 204.22c-.08 0-.17-.04-.22-.11-.08-.12-.06-.29.07-.38 0 0 .61-.5.94-2.69.32-2.12-3.82-3.17-3.87-3.18-.15-.03-.23-.18-.2-.33.04-.14.19-.24.33-.2.19.04 4.67 1.18 4.28 3.78-.38 2.44-1.09 3-1.17 3.06C157.6 204.2 157.55 204.22 157.49 204.22zM135.07 210.46c-.1 0-.19 0-.28 0-5.92-.12-12.15-3.28-12.2-3.31-.14-.07-.19-.23-.12-.36.07-.13.24-.19.36-.12.06.03 6.18 3.13 11.97 3.25.09 0 .17 0 .26 0 5.57 0 8.94-3.58 8.97-3.61.1-.11.27-.12.39-.01.11.1.12.27.02.38C144.29 206.84 140.88 210.46 135.07 210.46zM136.69 213.1c-5.13 0-8.12-1.3-8.16-1.32-.14-.06-.2-.22-.14-.36.07-.13.22-.2.36-.14.07.03 7.12 3.08 18.23-.37.14-.03.29.04.34.18.04.14-.04.29-.18.34C143.08 212.69 139.55 213.1 136.69 213.1zM129.24 214.02c-2.61 0-7.66-1.49-7.88-1.55-.14-.04-.22-.19-.18-.34.04-.15.2-.22.34-.18.05.02 5.19 1.53 7.72 1.53.06 0 .11-.01.19 0 .15 0 .26.11.27.26.01.15-.11.27-.26.28C129.37 214.02 129.31 214.02 129.24 214.02zM121.44 207.77c-.02 0-.03 0-.05 0-6.91-1.28-8.18-4.66-8.23-4.8-.05-.14.02-.29.16-.34.12-.05.3.02.34.16.01.03 1.25 3.23 7.82 4.45.15.03.24.17.22.32C121.69 207.68 121.57 207.77 121.44 207.77z" class="svgShape colorffffff-65 selectable"></path><path fill="#ffffff" d="M153.18 207.44c-.12 0-.23-.08-.26-.21-.03-.15.06-.29.2-.33 4.6-1.11 6.46-3.26 6.48-3.28.1-.11.26-.12.38-.03.12.1.13.27.03.38-.08.09-1.98 2.31-6.77 3.46C153.22 207.43 153.2 207.44 153.18 207.44zM148.63 204.95c-4.29 0-7.83-1.67-7.88-1.69-.14-.06-.19-.22-.13-.36.06-.13.22-.2.36-.13.06.03 6.29 2.97 12.1.92.14-.04.3.02.34.17.05.14-.02.3-.16.35C151.72 204.75 150.13 204.95 148.63 204.95zM136.48 201.4c-1.51 0-3.93-.21-5.38-1.44-.71-.6-1.05-1.23-.99-1.88.09-1.04 1.17-1.68 1.22-1.71.12-.08.3-.03.37.1.07.13.03.3-.1.37-.01.01-.89.53-.95 1.29-.04.46.23.93.8 1.41 2.01 1.7 6.3 1.26 6.35 1.25.01 0 .02 0 .03 0 .14 0 .25.1.27.24.02.15-.09.28-.24.3C137.78 201.35 137.24 201.4 136.48 201.4z" class="svgShape colorffffff-66 selectable"></path></g><g><path fill="#542e15" d="M99.8,33.67c-5.81,1.22-11.23,3.2-16.3,5.84c0,0-0.07-0.52-0.12-1.25c6.57-3.9,13.83-5.36,15.72-5.69
				C99.5,33.2,99.8,33.67,99.8,33.67z" class="svgShape color542e15-68 selectable"></path></g><g><path fill="#e87863" d="M93.75,62.86c-3.33-1.34-4.87-4.9-5.65-9.41l-0.58-0.03l-1.06,3.75c0,0,1.87,6.35,6.56,8.83L93.75,62.86z" class="svgShape colore87863-70 selectable"></path></g></g><g><path fill="#f9b090" d="M118.26,113.81c-0.24,0.96-1.61,1.2-1.61,1.2s0.19,0.9-0.12,1.42c-0.31,0.51-1.31,0.69-1.31,0.69
				s0.15,0.43-0.47,0.96c-0.62,0.53-1.27,0.46-1.27,0.46s0.45,0.73-0.8,1c-1.24,0.27-7.3-3.1-7.3-3.1s-19.01,2.21-25.32,2.05
				c-6.32-0.16-7.75-2.62-8.77-4.83c-0.71-1.55-1.14-7.48-1.33-10.93c-0.08-1.49-0.12-2.52-0.12-2.52l11.03-0.37v8.53
				c0,0,24.4,1.75,25.24,1.78c0.84,0.03,3.83-0.92,5.24-0.67c1.4,0.24,5.72,2.67,5.72,2.67S118.5,112.85,118.26,113.81z" class="svgShape colorf9b090-72 selectable"></path><polygon fill="#e87863" points="113.22 119.02 110.85 117.72 111.36 116.76 113.74 118.07" class="svgShape colore87863-73 selectable"></polygon><rect width="1.08" height="3.37" x="113.19" y="114.64" fill="#e87863" transform="rotate(-61.421 113.733 116.314)" class="svgShape colore87863-74 selectable"></rect><polygon fill="#e87863" points="116.39 115.49 113.66 114.01 114.18 113.06 116.91 114.54" class="svgShape colore87863-75 selectable"></polygon><path fill="#e87863" d="M80.87,99.84v1.73l-10.91,1.16c-0.08-1.49-0.12-2.52-0.12-2.52L80.87,99.84z" class="svgShape colore87863-76 selectable"></path></g><g><path fill="#fab795" d="M123.34,109.83c0,0,0.1,0.18,0.12,0.45c0.03,0.42-0.11,1.05-1.04,1.61c0,0,0.88,0.79,0.03,1.23
			c-0.86,0.43-3.99-0.71-4.61-0.89c-1.21-0.35-1.33-0.82-1.33-0.82s-0.11-1.22,0.72-1.47c0.14-0.04,0.31-0.06,0.5-0.03c0,0,0,0,0,0
			c-0.01-0.05-0.39-1.55,0.62-1.95c0.13-0.05,0.28-0.09,0.46-0.1c0,0-1.1-1.7,0.24-1.9c1.34-0.19,2.87-0.44,2.87-0.44l0.84-0.7
			c0,0,1.01,0.01,1.35,0.91c0.34,0.9-0.53,1.8-0.53,1.8s0,0,0,0c0.01,0.02,0.09,0.25,0.14,0.58
			C123.78,108.6,123.78,109.29,123.34,109.83z" class="svgShape colorfab795-78 selectable"></path></g><g><path fill="#e87863" d="M123.71,108.12c-0.84,0.18-3.09,0.43-3.81,0.38c-0.5-0.03-1.12-0.31-1.55-0.54c0.13-0.05,0.28-0.09,0.46-0.1
			c0.9,0.15,4.76-0.33,4.76-0.33s0,0,0,0C123.57,107.56,123.66,107.79,123.71,108.12z" class="svgShape colore87863-80 selectable"></path></g><g><path fill="#e87863" d="M123.45,110.28c-0.51,0.29-1.34,0.63-2.31,0.54c-1.39-0.14-3.26-0.5-3.93-0.88c0.14-0.04,0.31-0.06,0.5-0.03
			c0,0,2.57,0.52,3.6,0.57c1.02,0.05,2.02-0.65,2.02-0.65S123.43,110.01,123.45,110.28z" class="svgShape colore87863-82 selectable"></path></g><g><path fill="#4d2e1d" d="M171.49,57.52c-0.78,0-1.87-0.41-2.27-1.03c-0.24-0.38-0.14-0.88,0.24-1.12c0.36-0.24,0.88-0.14,1.12,0.24
			c0.06,0.06,0.22,0.13,0.4,0.19c-0.08-0.09-0.17-0.18-0.26-0.25c-0.34-0.29-0.39-0.8-0.1-1.14c0.29-0.34,0.8-0.38,1.14-0.1
			c0.41,0.34,1.67,1.54,0.99,2.6c-0.14,0.22-0.49,0.61-1.25,0.61C171.5,57.52,171.49,57.52,171.49,57.52z M171.32,56.28h0.02H171.32
			z" class="svgShape color4d2e1d-84 selectable"></path></g><g><path fill="#4d2e1d" d="M154.16,74.91c-0.78,0-1.88-0.42-2.27-1.04c-0.24-0.38-0.13-0.88,0.25-1.12c0.37-0.25,0.88-0.13,1.12,0.25
			c0.06,0.06,0.21,0.13,0.39,0.19c-0.08-0.09-0.17-0.18-0.26-0.25c-0.34-0.29-0.39-0.8-0.1-1.14c0.29-0.34,0.8-0.38,1.14-0.1
			c0.4,0.34,1.67,1.54,1,2.6C155.29,74.52,154.93,74.91,154.16,74.91L154.16,74.91z M154,73.67h0.02H154z" class="svgShape color4d2e1d-86 selectable"></path></g><g><path fill="#6d6e70" d="M152.77,75.06c-0.05,0-0.1-0.01-0.14-0.04c-0.13-0.07-0.17-0.24-0.1-0.37l0.9-1.53
			c0.07-0.13,0.24-0.18,0.37-0.1c0.13,0.07,0.17,0.24,0.1,0.37l-0.9,1.53C152.95,75.01,152.86,75.06,152.77,75.06z" class="svgShape color6d6e70-88 selectable"></path></g><g><path fill="#6d6e70" d="M170.41,57.56c-0.04,0-0.08-0.01-0.12-0.02c-0.13-0.06-0.19-0.22-0.13-0.36l0.62-1.33
			c0.06-0.13,0.22-0.19,0.36-0.13c0.13,0.06,0.19,0.22,0.13,0.36l-0.62,1.33C170.61,57.5,170.51,57.56,170.41,57.56z" class="svgShape color6d6e70-90 selectable"></path></g><g><path fill="#4d2e1d" d="M130.99,109.62l-4.54,6.63c-0.32,0.46-0.95,0.58-1.41,0.26l-0.21-0.15l-2.55,3.73
			c-0.32,0.46-0.95,0.58-1.41,0.26l-1.02-0.7c-0.46-0.32-0.58-0.95-0.26-1.41l2.55-3.73l-0.21-0.15c-0.46-0.32-0.58-0.95-0.26-1.41
			l4.54-6.64c0.32-0.46,0.95-0.58,1.41-0.26l3.12,2.13C131.19,108.52,131.31,109.15,130.99,109.62z" class="svgShape color4d2e1d-92 selectable"></path></g><g><path fill="#e07b5e" d="M119.71,197.44c0,0-0.22,1.28,0.42,1.76c0.64,0.48,0.48,0.78,0.19,0.83c-0.29,0.05-1.55-0.66-1.47-1.5
			c0.07-0.84,0.49-1.65,0.68-1.66S119.71,197.44,119.71,197.44z" class="svgShape colore07b5e-94 selectable"></path></g><g><path fill="#e07b5e" d="M135.51,192.54c0,0-0.22,1.28,0.42,1.76c0.64,0.48,0.48,0.78,0.19,0.83c-0.29,0.05-1.55-0.66-1.47-1.5
			c0.07-0.84,0.49-1.65,0.68-1.66C135.5,191.97,135.51,192.54,135.51,192.54z" class="svgShape colore07b5e-96 selectable"></path></g><g><path fill="#d33f2b" d="M196.07,189.09h-1.01v-6.77c0-0.05,0.04-0.09,0.09-0.09h0.83c0.05,0,0.09,0.04,0.09,0.09V189.09z" class="svgShape colord33f2b-98 selectable"></path></g><g><rect width="1.01" height="2.53" x="195.05" y="186.56" fill="#fff6d7" class="svgShape colorfff6d7-100 selectable"></rect></g><g><path fill="#d33f2b" d="M198.49,199.54c0.52-1.11,0.84-2.53,0.84-4.07c0-3.56-1.66-6.45-3.72-6.45c-2.05,0-3.72,2.89-3.72,6.45
				c0,1.55,0.31,2.96,0.84,4.07C192.73,200.06,198.49,200.06,198.49,199.54z" class="svgShape colord33f2b-102 selectable"></path><path fill="#fff6d7" d="M191.95,194.36c-0.04,0.36-0.06,0.73-0.06,1.1c0,1.55,0.31,2.96,0.84,4.07c0,0.52,5.76,0.52,5.76,0
				c0.52-1.11,0.84-2.53,0.84-4.07c0-0.38-0.02-0.74-0.06-1.1C196.56,195.19,194.13,195.17,191.95,194.36z" class="svgShape colorfff6d7-103 selectable"></path><path fill="#231f20" d="M192.01,193.87c2.15,0.79,4.54,0.81,7.2,0l0.06,0.5c0,0-1.79,1.02-4.03,0.81c-2.62-0.24-3.29-0.81-3.29-0.81
				L192.01,193.87z" class="svgShape color231f20-104 selectable"></path></g><g><path fill="#d77b59" d="M86.72,51.21c-0.02,0-0.04,0-0.06-0.01c-0.26-0.07-0.49-0.26-0.65-0.54c-0.13-0.23-0.19-0.47-0.25-0.71
			c-0.06-0.27-0.13-0.57-0.13-0.89c0-0.34,0.08-0.66,0.23-0.92c0.06-0.11,0.22-0.15,0.31-0.09c0.11,0.06,0.15,0.2,0.09,0.31
			c-0.11,0.19-0.16,0.43-0.16,0.7c0,0.27,0.05,0.53,0.11,0.78c0.05,0.21,0.11,0.42,0.21,0.58c0.06,0.1,0.18,0.27,0.38,0.33
			c0.12,0.04,0.19,0.16,0.16,0.29C86.91,51.15,86.82,51.21,86.72,51.21z" class="svgShape colord77b59-106 selectable"></path></g></svg></g></svg>