<svg xmlns="http://www.w3.org/2000/svg" viewBox="0 0 64 64" id="fish">
  <circle cx="55" cy="29" r="2" fill="#656d78"></circle>
  <path fill="#87bcf4" d="M48.5,35a1.5,1.5,0,0,1,0,3H43a1.99309,1.99309,0,0,1-2-2V33a1.99309,1.99309,0,0,0,2,2Z"></path>
  <path fill="#ffce54" d="M17.23,29.68,36,22h9a9.00072,9.00072,0,0,1-9,9H21Z"></path>
  <polygon fill="#4a89dc" points="37 45 30 45 10.51 33.62 15.4 32.4 37 45"></polygon>
  <path fill="#4a89dc" d="M35,19H48a10.94894,10.94894,0,0,1,7.55,3H36L17.23,29.68l-4.29-1.5L13,28Z"></path>
  <path fill="#5d9cec" d="M63,39,49,45H37L15.4,32.4,21,31H36a9.00072,9.00072,0,0,0,9-9H55.55a11.03235,11.03235,0,0,1,2.25,3L63,36ZM57,29a2,2,0,1,0-2,2A2.00588,2.00588,0,0,0,57,29Zm-7,7.5A1.498,1.498,0,0,0,48.5,35H43a1.99309,1.99309,0,0,1-2-2v3a1.99309,1.99309,0,0,0,2,2h5.5A1.498,1.498,0,0,0,50,36.5Z"></path>
  <polygon fill="#f6bb42" points="21 31 15.4 32.4 10.51 33.62 10.5 33.62 1 36 1 24 12.94 28.18 17.23 29.68 21 31"></polygon>
</svg>
