<svg xmlns="http://www.w3.org/2000/svg" viewBox="0 0 150 150" id="fish">
  <path fill="#d69e4f" d="M65.394 51.749a1 1 0 0 1-1-1V27.981a1 1 0 1 1 2 0V50.75a1 1 0 0 1-1 1zm-13.991 0a1 1 0 0 1-.894-.549L40.246 30.877a1 1 0 0 1 1.785-.902l10.263 20.323a1 1 0 0 1-.891 1.451zM33.3 63.764a1 1 0 0 1-.894-.55L22.143 42.892a1 1 0 0 1 1.785-.903l10.263 20.325a1 1 0 0 1-.891 1.45zm46.085-12.015a1 1 0 0 1-.892-1.451l10.263-20.323a1 1 0 0 1 1.785.902L80.28 51.2a1.001 1.001 0 0 1-.894.549zm18.103 12.015a1 1 0 0 1-.892-1.451l10.264-20.325a1.001 1.001 0 0 1 1.785.903L98.38 63.215a1.001 1.001 0 0 1-.893.549zm-32.094 59.255a1 1 0 0 1-1-1V99.25a1 1 0 1 1 2 0v22.769a1 1 0 0 1-1 1zm-24.257-2.445a1 1 0 0 1-.892-1.451L50.51 98.799a1 1 0 0 1 1.785.902l-10.263 20.324a1 1 0 0 1-.894.55zM23.034 108.56a1 1 0 0 1-.892-1.451l10.264-20.324a1.001 1.001 0 0 1 1.785.902l-10.263 20.324a1 1 0 0 1-.894.549zm66.616 12.014c-.366 0-.718-.201-.894-.549L78.493 99.701a1 1 0 0 1 1.786-.902l10.262 20.324a1 1 0 0 1-.891 1.451zm18.103-12.014c-.365 0-.718-.202-.893-.55L96.596 87.688a1 1 0 0 1 1.785-.902l10.264 20.323a1 1 0 0 1-.892 1.452z"></path>
  <ellipse cx="124.492" cy="75.315" fill="#d69e4f" rx="14.508" ry="22.409"></ellipse>
  <ellipse cx="65.819" cy="75" fill="#f5b45a" rx="49.298" ry="39.044"></ellipse>
  <path fill="#f5b45a" d="M15.674 76.972h6.427a4.674 4.674 0 0 0 4.674-4.674v-.095a4.674 4.674 0 0 0-4.674-4.674h-6.427A4.674 4.674 0 0 0 11 72.203v.095a4.674 4.674 0 0 0 4.674 4.674z"></path>
  <path fill="#f5b45a" d="M15.674 82.067h6.427a4.674 4.674 0 0 0 4.674-4.674V77.3a4.674 4.674 0 0 0-4.674-4.674h-6.427A4.674 4.674 0 0 0 11 77.299v.094a4.674 4.674 0 0 0 4.674 4.674z"></path>
  <circle cx="40.241" cy="61.419" r="8.817" fill="#fcfffb"></circle>
  <circle cx="40.241" cy="61.419" r="5.863" fill="#1f323a"></circle>
  <circle cx="39.065" cy="59.068" r="1.175" fill="#fcfffb"></circle>
  <circle cx="40.819" cy="58.749" r=".32" fill="#fcfffb"></circle>
  <path fill="#d69e4f" d="M63.991 104.307c-3.393 0-8.565-2.218-16.166-10.256-.557 1.531-1.65 3.573-3.633 4.249-1.997.676-4.31-.174-6.881-2.536a1 1 0 0 1 1.352-1.473c1.37 1.257 3.326 2.64 4.884 2.115 2.1-.715 2.807-4.477 2.813-4.515a1 1 0 0 1 1.726-.501c10.548 11.624 15.81 11.303 17.587 10.625 2.012-.769 3.228-3.195 3.253-6.489.033-4.572-2.393-10.414-6.956-12.234a1 1 0 1 1 .741-1.857c5.445 2.171 8.254 8.74 8.215 14.106-.031 4.15-1.728 7.269-4.54 8.342a6.65 6.65 0 0 1-2.395.424zM37.428 91.096c-1.444 0-2.965-.364-4.547-1.091a1 1 0 1 1 .835-1.817c2.205 1.012 4.215 1.173 5.974.483 3.005-1.185 4.396-4.501 4.41-4.535a1 1 0 0 1 1.852.753c-.067.168-1.707 4.126-5.51 5.635a8.113 8.113 0 0 1-3.014.572z"></path>
</svg>
