<svg xmlns="http://www.w3.org/2000/svg" width="200" height="200" id="dory-blue-tang-fish">
  <g fill="none" fill-rule="evenodd">
    <path fill="#227FBB" d="m138.408 133.507 1.819.055c-3.518 2.425-6.414 4.233-8.69 5.423 5.992.11 17.18-4.298 19.682-6.022 15.623-1.794 32.533-8.411 46.532-31.963 0-.914-.52-1.467-1.558-1.658 1.872-2.217 2.807-3.697 2.807-4.438-11.704-23.622-26-45.35-73.424-43.376-31.333 0-66.491 15.602-79.954 29.442 13.187 2.535 31.203 9.477 31.203 13.934 0 3.936-21.275 11.51-36.479 16.53 20.323 19.107 37.097 28.726 98.062 22.073Z"></path>
    <path fill="#000" d="M142.685 51.894C69 47.798 50.572 79.375 40.65 81.881c2.932 1.242 8.099 1.863 15.5 1.863-3.07 1.707-6.956 3.98-10.339 4.194-16.01-7.275-39.98-10.62-44.435-8.563 7.35 5.375 20.53 19.84 2.234 36.091 12.63-1.494 29.256-5.918 41.438-10.866 2.324 1.102 4.553 1.102 8.686 2.078-.553 1.262-13.084.69-18.08 3.792 10.092 4.038 22.447 36.164 102.66 23.076-2.282 1.346-3.262 3.13-7.2 5.548 5.098-.617 7.2-3.79 9.944-5.693-1.597.014-2.25-.072-2.937-.072-26.81 1.386-58.986 3.121-74.07-6.695-3.566-2.32-15.852-11.168-21.434-15.2 2.13-1.508 6.33-2.918 12.6-4.23 19.013-1.438 33.608-2.643 43.784-3.616 25.904-2.476 50.886-6.366 52.05-33.38 3.26-3.714 7.554-3.714 10.922-1.312 2.725 1.944 5.831 3.439 7.81 6.104.766 4 2.667 7.465 6.218 6.88 7.181-1.181 2-9.88-1.454-10.944-1.546-5.023-8.916-11.827-16.733-12.398-1.32-.928-59.043-9.877-99.964 24.185-3.391-.936-7.366-.936-9.65-1.752 28.536-22.433 51.61-27.486 94.486-29.077Z"></path>
    <path fill="#FFE264" d="M5.03 83.505C24.72 84.677 42.977 90.257 69 97.004c-18.056 3.996-41.03 5-61.4 14.43 3.347-9.43 3.347-17.231-2.57-27.929Z"></path>
    <path fill="#227FBB" d="M126.027 88.378c22.3-3.26 22.3-15.378 19.456-18.829-2.844-3.45-13.306-.774-25.33 2.451C108.128 75.226 97.02 76.94 99 85.12c1.98 8.177 17.598 4.637 27.027 3.259Z"></path>
    <g transform="translate(172 72)">
      <circle cx="4" cy="4" r="4" fill="#FFF"></circle>
      <circle cx="4" cy="4" r="3" fill="#000"></circle>
      <circle cx="6" cy="3" r="1" fill="#FFF"></circle>
    </g>
    <path fill="#000" d="M161.726 83.688c-1.096 3.35-.435 6.568.494 7.367 2.406 2.067-2.242 10.435 17.78 17.8-20.602-.396-21.91-23.062-18.274-25.167Z"></path>
    <path fill="#012B54" d="M159.724 97.99c-4.94-8.95-16.607-17.408-21.829-18.99 3.398 31.318 14.95 37.032 22.082 35.233-1.895-1.991-3.254-13.346-.253-16.244Z"></path>
    <path fill="#FFE264" d="M148.565 110.182c-1.026-15.182.281-25.897-11.086-31.651.692 12.981 5.97 26.701 11.086 31.651Z"></path>
  </g>
</svg>
